<mxfile host="app.diagrams.net" modified="2023-08-26T05:20:57.402Z" agent="Mozilla/5.0 (Macintosh; Intel Mac OS X 10_15_7) AppleWebKit/537.36 (KHTML, like Gecko) Chrome/116.0.0.0 Safari/537.36" etag="BzurTKfA7Tj5iUPQaofX" version="21.6.9" type="github">
  <diagram name="Page-1" id="rfstKQvpgWUxUB8HpxF8">
    <mxGraphModel dx="954" dy="562" grid="1" gridSize="10" guides="1" tooltips="1" connect="1" arrows="1" fold="1" page="1" pageScale="1" pageWidth="850" pageHeight="1100" background="#ffffff" math="0" shadow="0">
      <root>
        <mxCell id="0" />
        <mxCell id="1" parent="0" />
        <mxCell id="nMwyg1gEoW_6w8Poj8ND-5" value="" style="edgeStyle=orthogonalEdgeStyle;rounded=0;orthogonalLoop=1;jettySize=auto;html=1;strokeColor=#666666;shadow=0;fillColor=#f5f5f5;" parent="1" source="nMwyg1gEoW_6w8Poj8ND-1" target="nMwyg1gEoW_6w8Poj8ND-3" edge="1">
          <mxGeometry relative="1" as="geometry" />
        </mxCell>
        <mxCell id="nMwyg1gEoW_6w8Poj8ND-1" value="Start" style="ellipse;whiteSpace=wrap;html=1;aspect=fixed;strokeColor=#666666;shadow=0;fillColor=#f5f5f5;fontColor=#333333;" parent="1" vertex="1">
          <mxGeometry x="400" y="50" width="40" height="40" as="geometry" />
        </mxCell>
        <mxCell id="nMwyg1gEoW_6w8Poj8ND-9" value="" style="edgeStyle=orthogonalEdgeStyle;rounded=0;orthogonalLoop=1;jettySize=auto;html=1;strokeColor=#666666;shadow=0;fillColor=#f5f5f5;" parent="1" source="nMwyg1gEoW_6w8Poj8ND-3" target="nMwyg1gEoW_6w8Poj8ND-7" edge="1">
          <mxGeometry relative="1" as="geometry" />
        </mxCell>
        <mxCell id="nMwyg1gEoW_6w8Poj8ND-3" value="Inisiasi ESP8266" style="rounded=0;whiteSpace=wrap;html=1;strokeColor=#666666;shadow=0;fillColor=#f5f5f5;fontColor=#333333;" parent="1" vertex="1">
          <mxGeometry x="360" y="110" width="120" height="60" as="geometry" />
        </mxCell>
        <mxCell id="nMwyg1gEoW_6w8Poj8ND-11" style="edgeStyle=orthogonalEdgeStyle;rounded=0;orthogonalLoop=1;jettySize=auto;html=1;entryX=1;entryY=0.5;entryDx=0;entryDy=0;strokeColor=#666666;shadow=0;fillColor=#f5f5f5;" parent="1" source="nMwyg1gEoW_6w8Poj8ND-4" target="nMwyg1gEoW_6w8Poj8ND-7" edge="1">
          <mxGeometry relative="1" as="geometry">
            <mxPoint x="500" y="230" as="targetPoint" />
            <Array as="points">
              <mxPoint x="520" y="310" />
              <mxPoint x="520" y="220" />
            </Array>
          </mxGeometry>
        </mxCell>
        <mxCell id="nMwyg1gEoW_6w8Poj8ND-17" value="" style="edgeStyle=orthogonalEdgeStyle;rounded=0;orthogonalLoop=1;jettySize=auto;html=1;strokeColor=#666666;shadow=0;fillColor=#f5f5f5;" parent="1" source="nMwyg1gEoW_6w8Poj8ND-4" target="nMwyg1gEoW_6w8Poj8ND-16" edge="1">
          <mxGeometry relative="1" as="geometry" />
        </mxCell>
        <mxCell id="nMwyg1gEoW_6w8Poj8ND-4" value="koneksi berhasil?" style="rhombus;whiteSpace=wrap;html=1;strokeColor=#666666;shadow=0;fillColor=#f5f5f5;fontColor=#333333;" parent="1" vertex="1">
          <mxGeometry x="380" y="270" width="80" height="80" as="geometry" />
        </mxCell>
        <mxCell id="nMwyg1gEoW_6w8Poj8ND-10" value="" style="edgeStyle=orthogonalEdgeStyle;rounded=0;orthogonalLoop=1;jettySize=auto;html=1;strokeColor=#666666;shadow=0;fillColor=#f5f5f5;" parent="1" source="nMwyg1gEoW_6w8Poj8ND-7" target="nMwyg1gEoW_6w8Poj8ND-4" edge="1">
          <mxGeometry relative="1" as="geometry" />
        </mxCell>
        <mxCell id="nMwyg1gEoW_6w8Poj8ND-7" value="Konek ke wifi/Internet" style="rounded=0;whiteSpace=wrap;html=1;strokeColor=#666666;shadow=0;fillColor=#f5f5f5;fontColor=#333333;" parent="1" vertex="1">
          <mxGeometry x="360" y="190" width="120" height="60" as="geometry" />
        </mxCell>
        <mxCell id="nMwyg1gEoW_6w8Poj8ND-12" value="Tidak" style="text;html=1;strokeColor=none;fillColor=none;align=center;verticalAlign=middle;whiteSpace=wrap;rounded=0;shadow=0;fontColor=#333333;" parent="1" vertex="1">
          <mxGeometry x="490" y="260" width="60" height="30" as="geometry" />
        </mxCell>
        <mxCell id="nMwyg1gEoW_6w8Poj8ND-14" value="Ya" style="text;html=1;strokeColor=none;fillColor=none;align=center;verticalAlign=middle;whiteSpace=wrap;rounded=0;shadow=0;fontColor=#333333;" parent="1" vertex="1">
          <mxGeometry x="409" y="342" width="60" height="30" as="geometry" />
        </mxCell>
        <mxCell id="nMwyg1gEoW_6w8Poj8ND-19" value="" style="edgeStyle=orthogonalEdgeStyle;rounded=0;orthogonalLoop=1;jettySize=auto;html=1;strokeColor=#666666;shadow=0;fillColor=#f5f5f5;" parent="1" source="nMwyg1gEoW_6w8Poj8ND-16" target="nMwyg1gEoW_6w8Poj8ND-18" edge="1">
          <mxGeometry relative="1" as="geometry" />
        </mxCell>
        <mxCell id="nMwyg1gEoW_6w8Poj8ND-16" value="Konek ke firebase" style="rounded=0;whiteSpace=wrap;html=1;strokeColor=#666666;shadow=0;fillColor=#f5f5f5;fontColor=#333333;" parent="1" vertex="1">
          <mxGeometry x="360" y="371" width="120" height="60" as="geometry" />
        </mxCell>
        <mxCell id="nMwyg1gEoW_6w8Poj8ND-21" style="edgeStyle=orthogonalEdgeStyle;rounded=0;orthogonalLoop=1;jettySize=auto;html=1;strokeColor=#666666;shadow=0;fillColor=#f5f5f5;exitX=1;exitY=0.5;exitDx=0;exitDy=0;" parent="1" source="nMwyg1gEoW_6w8Poj8ND-18" edge="1">
          <mxGeometry relative="1" as="geometry">
            <mxPoint x="481" y="400" as="targetPoint" />
            <Array as="points">
              <mxPoint x="520" y="490" />
              <mxPoint x="520" y="400" />
            </Array>
          </mxGeometry>
        </mxCell>
        <mxCell id="sJ67NsZCK-lYWogqedaQ-6" value="" style="edgeStyle=orthogonalEdgeStyle;rounded=0;orthogonalLoop=1;jettySize=auto;html=1;" edge="1" parent="1" source="nMwyg1gEoW_6w8Poj8ND-18" target="sJ67NsZCK-lYWogqedaQ-5">
          <mxGeometry relative="1" as="geometry" />
        </mxCell>
        <mxCell id="nMwyg1gEoW_6w8Poj8ND-18" value="Koneksi berhasil?" style="rhombus;whiteSpace=wrap;html=1;strokeColor=#666666;shadow=0;fillColor=#f5f5f5;fontColor=#333333;" parent="1" vertex="1">
          <mxGeometry x="380" y="450" width="80" height="80" as="geometry" />
        </mxCell>
        <mxCell id="nMwyg1gEoW_6w8Poj8ND-20" value="Ya" style="text;html=1;strokeColor=none;fillColor=none;align=center;verticalAlign=middle;whiteSpace=wrap;rounded=0;shadow=0;fontColor=#333333;" parent="1" vertex="1">
          <mxGeometry x="400" y="530" width="60" height="30" as="geometry" />
        </mxCell>
        <mxCell id="nMwyg1gEoW_6w8Poj8ND-22" value="Tidak" style="text;html=1;strokeColor=none;fillColor=none;align=center;verticalAlign=middle;whiteSpace=wrap;rounded=0;shadow=0;fontColor=#333333;" parent="1" vertex="1">
          <mxGeometry x="510" y="440" width="60" height="30" as="geometry" />
        </mxCell>
        <mxCell id="sJ67NsZCK-lYWogqedaQ-2" value="" style="edgeStyle=orthogonalEdgeStyle;rounded=0;orthogonalLoop=1;jettySize=auto;html=1;" edge="1" parent="1" source="nMwyg1gEoW_6w8Poj8ND-28" target="nMwyg1gEoW_6w8Poj8ND-33">
          <mxGeometry relative="1" as="geometry" />
        </mxCell>
        <mxCell id="sJ67NsZCK-lYWogqedaQ-3" value="" style="edgeStyle=orthogonalEdgeStyle;rounded=0;orthogonalLoop=1;jettySize=auto;html=1;" edge="1" parent="1" source="nMwyg1gEoW_6w8Poj8ND-28" target="nMwyg1gEoW_6w8Poj8ND-37">
          <mxGeometry relative="1" as="geometry" />
        </mxCell>
        <mxCell id="nMwyg1gEoW_6w8Poj8ND-28" value="Apakah user menekan feednow?" style="rhombus;whiteSpace=wrap;html=1;strokeColor=#666666;shadow=0;fillColor=#f5f5f5;fontColor=#333333;" parent="1" vertex="1">
          <mxGeometry x="285" y="680" width="80" height="80" as="geometry" />
        </mxCell>
        <mxCell id="nMwyg1gEoW_6w8Poj8ND-31" value="Tidak" style="text;html=1;strokeColor=none;fillColor=none;align=center;verticalAlign=middle;whiteSpace=wrap;rounded=0;shadow=0;fontColor=#333333;" parent="1" vertex="1">
          <mxGeometry x="385" y="690" width="60" height="30" as="geometry" />
        </mxCell>
        <mxCell id="nMwyg1gEoW_6w8Poj8ND-32" value="Ya" style="text;html=1;strokeColor=none;fillColor=none;align=center;verticalAlign=middle;whiteSpace=wrap;rounded=0;shadow=0;fontColor=#333333;" parent="1" vertex="1">
          <mxGeometry x="315" y="760" width="60" height="30" as="geometry" />
        </mxCell>
        <mxCell id="sJ67NsZCK-lYWogqedaQ-9" style="edgeStyle=orthogonalEdgeStyle;rounded=0;orthogonalLoop=1;jettySize=auto;html=1;entryX=0;entryY=0.5;entryDx=0;entryDy=0;exitX=0.5;exitY=1;exitDx=0;exitDy=0;" edge="1" parent="1" source="nMwyg1gEoW_6w8Poj8ND-33" target="nMwyg1gEoW_6w8Poj8ND-35">
          <mxGeometry relative="1" as="geometry" />
        </mxCell>
        <mxCell id="nMwyg1gEoW_6w8Poj8ND-33" value="Servo berputar" style="rounded=0;whiteSpace=wrap;html=1;strokeColor=#666666;shadow=0;fillColor=#f5f5f5;fontColor=#333333;" parent="1" vertex="1">
          <mxGeometry x="265" y="790" width="120" height="60" as="geometry" />
        </mxCell>
        <mxCell id="nMwyg1gEoW_6w8Poj8ND-35" value="Selesai" style="ellipse;whiteSpace=wrap;html=1;aspect=fixed;strokeColor=#666666;shadow=0;fillColor=#f5f5f5;fontColor=#333333;" parent="1" vertex="1">
          <mxGeometry x="385" y="860" width="50" height="50" as="geometry" />
        </mxCell>
        <mxCell id="sJ67NsZCK-lYWogqedaQ-8" style="edgeStyle=orthogonalEdgeStyle;rounded=0;orthogonalLoop=1;jettySize=auto;html=1;entryX=1;entryY=0.5;entryDx=0;entryDy=0;exitX=1;exitY=0.5;exitDx=0;exitDy=0;" edge="1" parent="1" source="nMwyg1gEoW_6w8Poj8ND-37" target="sJ67NsZCK-lYWogqedaQ-5">
          <mxGeometry relative="1" as="geometry" />
        </mxCell>
        <mxCell id="sJ67NsZCK-lYWogqedaQ-11" value="" style="edgeStyle=orthogonalEdgeStyle;rounded=0;orthogonalLoop=1;jettySize=auto;html=1;" edge="1" parent="1" source="nMwyg1gEoW_6w8Poj8ND-37" target="sJ67NsZCK-lYWogqedaQ-10">
          <mxGeometry relative="1" as="geometry" />
        </mxCell>
        <mxCell id="nMwyg1gEoW_6w8Poj8ND-37" value="Apakah user menekan feed stop?" style="rhombus;whiteSpace=wrap;html=1;strokeColor=#666666;shadow=0;fillColor=#f5f5f5;fontColor=#333333;" parent="1" vertex="1">
          <mxGeometry x="455" y="680" width="80" height="80" as="geometry" />
        </mxCell>
        <mxCell id="nMwyg1gEoW_6w8Poj8ND-41" value="Tidak" style="text;html=1;strokeColor=none;fillColor=none;align=center;verticalAlign=middle;whiteSpace=wrap;rounded=0;shadow=0;fontColor=#333333;" parent="1" vertex="1">
          <mxGeometry x="540" y="640" width="60" height="30" as="geometry" />
        </mxCell>
        <mxCell id="sJ67NsZCK-lYWogqedaQ-7" style="edgeStyle=orthogonalEdgeStyle;rounded=0;orthogonalLoop=1;jettySize=auto;html=1;entryX=0.5;entryY=0;entryDx=0;entryDy=0;exitX=0;exitY=0.5;exitDx=0;exitDy=0;" edge="1" parent="1" source="sJ67NsZCK-lYWogqedaQ-5" target="nMwyg1gEoW_6w8Poj8ND-28">
          <mxGeometry relative="1" as="geometry" />
        </mxCell>
        <mxCell id="sJ67NsZCK-lYWogqedaQ-5" value="Menunggu Perintah / Iddle" style="rounded=0;whiteSpace=wrap;html=1;" vertex="1" parent="1">
          <mxGeometry x="360" y="560" width="120" height="60" as="geometry" />
        </mxCell>
        <mxCell id="sJ67NsZCK-lYWogqedaQ-13" style="edgeStyle=orthogonalEdgeStyle;rounded=0;orthogonalLoop=1;jettySize=auto;html=1;entryX=1;entryY=0.5;entryDx=0;entryDy=0;" edge="1" parent="1" source="sJ67NsZCK-lYWogqedaQ-10" target="nMwyg1gEoW_6w8Poj8ND-35">
          <mxGeometry relative="1" as="geometry" />
        </mxCell>
        <mxCell id="sJ67NsZCK-lYWogqedaQ-10" value="Servo berhenti berputar" style="rounded=0;whiteSpace=wrap;html=1;" vertex="1" parent="1">
          <mxGeometry x="435" y="790" width="120" height="60" as="geometry" />
        </mxCell>
        <mxCell id="sJ67NsZCK-lYWogqedaQ-12" value="Ya" style="text;html=1;strokeColor=none;fillColor=none;align=center;verticalAlign=middle;whiteSpace=wrap;rounded=0;shadow=0;fontColor=#333333;" vertex="1" parent="1">
          <mxGeometry x="475" y="760" width="60" height="30" as="geometry" />
        </mxCell>
      </root>
    </mxGraphModel>
  </diagram>
</mxfile>
